0
SECTION
2
HEADER
9
$INSUNITS
70
4
9
$ACADVER
1
AC1014
9
$HANDSEED
5
FFFF
0
ENDSEC
0
SECTION
2
TABLES
0
TABLE
2
VPORT
5
8
100
AcDbSymbolTable
0
ENDTAB
0
TABLE
2
LTYPE
5
5
100
AcDbSymbolTable
0
LTYPE
5
14
100
AcDbSymbolTableRecord
100
AcDbLinetypeTableRecord
2
BYBLOCK
70
0
0
LTYPE
5
15
100
AcDbSymbolTableRecord
100
AcDbLinetypeTableRecord
2
BYLAYER
70
0
0
ENDTAB
0
TABLE
2
LAYER
5
2
100
AcDbSymbolTable
70
2
0
LAYER
5
50
100
AcDbSymbolTableRecord
100
AcDbLayerTableRecord
2
0
70
0
6
CONTINUOUS
0
ENDTAB
0
TABLE
2
STYLE
5
3
100
AcDbSymbolTable
70
1
0
STYLE
5
11
100
AcDbSymbolTableRecord
100
AcDbTextStyleTableRecord
2
STANDARD
70
0
0
ENDTAB
0
TABLE
2
VIEW
5
6
100
AcDbSymbolTable
70
0
0
ENDTAB
0
TABLE
2
UCS
5
7
100
AcDbSymbolTable
70
0
0
ENDTAB
0
TABLE
2
APPID
5
9
100
AcDbSymbolTable
70
2
0
APPID
5
12
100
AcDbSymbolTableRecord
100
AcDbRegAppTableRecord
2
ACAD
70
0
0
ENDTAB
0
TABLE
2
DIMSTYLE
5
A
100
AcDbSymbolTable
70
1
0
ENDTAB
0
TABLE
2
BLOCK_RECORD
5
1
100
AcDbSymbolTable
70
1
0
BLOCK_RECORD
5
1F
100
AcDbSymbolTableRecord
100
AcDbBlockTableRecord
2
*MODEL_SPACE
0
BLOCK_RECORD
5
1B
100
AcDbSymbolTableRecord
100
AcDbBlockTableRecord
2
*PAPER_SPACE
0
ENDTAB
0
ENDSEC
0
SECTION
2
BLOCKS
0
BLOCK
5
20
100
AcDbEntity
100
AcDbBlockBegin
2
*MODEL_SPACE
0
ENDBLK
5
21
100
AcDbEntity
100
AcDbBlockEnd
0
BLOCK
5
1C
100
AcDbEntity
100
AcDbBlockBegin
2
*PAPER_SPACE
0
ENDBLK
5
1D
100
AcDbEntity
100
AcDbBlockEnd
0
ENDSEC
0
SECTION
2
ENTITIES
0
LWPOLYLINE
5
100
100
AcDbEntity
8
0
100
AcDbPolyline
90
4
70
1
43
0.0
10
800.05825579814325
20
-37.969324485122854
10
798.96625121330771
20
-37.969324485122854
42
-17.424094571612695
10
798.94363624323216
20
-34.534450738633765
10
800.05825579814325
20
-34.534450738633765
42
-4.2800615175480434
0
LWPOLYLINE
5
101
100
AcDbEntity
8
0
100
AcDbPolyline
90
26
70
1
43
0.0
10
745.89303573993379
20
-33.153622669791162
10
745.89303573993379
20
-39.350152553965444
10
748.78888291093472
20
-42.245999725339196
10
758.49334386163889
20
-42.245999725339196
10
777.53171312492339
20
-54.217193229640614
10
795.92659952583688
20
-54.21719322964114
10
810.2729335039478
20
-48.995554690766909
10
810.2729335039478
20
-43.909987600535345
10
820.42659032144684
20
-43.909987600504266
10
823.19519095546912
20
-46.678588234526472
10
823.5812953341117
20
-46.67858823458549
10
825.2678352234168
20
-44.992048345280537
10
825.2678352234168
20
-42.304689249452508
10
823.0281878763958
20
-42.304689249381298
10
823.02818787678007
20
-30.199089249381327
10
825.2678352234168
20
-30.199089249452538
10
825.2678352234168
20
-27.511726878476075
10
823.5812953341117
20
-25.825186989171126
10
823.19519095546912
20
-25.82518698923014
10
820.42659032144684
20
-28.59378762325235
10
810.2729335039478
20
-28.593787623221267
10
810.2729335039478
20
-23.702958578181359
10
795.93006671817716
20
-18.482581994115481
10
777.53185553064384
20
-18.482581994115996
10
758.80519456730963
20
-30.257775498417416
10
748.78888291093472
20
-30.257775498417416
0
CIRCLE
5
102
100
AcDbEntity
8
0
100
AcDbCircle
10
817.05799099417641
20
-36.251887828206442
30
-7.1054273576010019e-14
40
3.4250000000000007
210
-2.8749271498189242e-26
220
5.8408098662363243e-34
230
1
0
CIRCLE
5
103
100
AcDbEntity
8
0
100
AcDbCircle
10
751.34618361909384
20
-36.314627668479829
30
-7.1054273576010019e-14
40
3.4250000000000003
210
-2.8749271481777814e-26
220
2.9595423566540137e-42
230
1
0
ENDSEC
0
SECTION
2
OBJECTS
0
DICTIONARY
5
C
100
AcDbDictionary
3
ACAD_GROUP
350
D
3
ACAD_MLINESTYLE
350
17
0
DICTIONARY
5
D
100
AcDbDictionary
0
DICTIONARY
5
1A
330
C
100
AcDbDictionary
0
DICTIONARY
5
17
100
AcDbDictionary
0
ENDSEC
0
EOF
