0
SECTION
2
HEADER
9
$INSUNITS
70
4
9
$ACADVER
1
AC1014
9
$HANDSEED
5
FFFF
0
ENDSEC
0
SECTION
2
TABLES
0
TABLE
2
VPORT
5
8
100
AcDbSymbolTable
0
ENDTAB
0
TABLE
2
LTYPE
5
5
100
AcDbSymbolTable
0
LTYPE
5
14
100
AcDbSymbolTableRecord
100
AcDbLinetypeTableRecord
2
BYBLOCK
70
0
0
LTYPE
5
15
100
AcDbSymbolTableRecord
100
AcDbLinetypeTableRecord
2
BYLAYER
70
0
0
ENDTAB
0
TABLE
2
LAYER
5
2
100
AcDbSymbolTable
70
2
0
LAYER
5
50
100
AcDbSymbolTableRecord
100
AcDbLayerTableRecord
2
0
70
0
6
CONTINUOUS
0
ENDTAB
0
TABLE
2
STYLE
5
3
100
AcDbSymbolTable
70
1
0
STYLE
5
11
100
AcDbSymbolTableRecord
100
AcDbTextStyleTableRecord
2
STANDARD
70
0
0
ENDTAB
0
TABLE
2
VIEW
5
6
100
AcDbSymbolTable
70
0
0
ENDTAB
0
TABLE
2
UCS
5
7
100
AcDbSymbolTable
70
0
0
ENDTAB
0
TABLE
2
APPID
5
9
100
AcDbSymbolTable
70
2
0
APPID
5
12
100
AcDbSymbolTableRecord
100
AcDbRegAppTableRecord
2
ACAD
70
0
0
ENDTAB
0
TABLE
2
DIMSTYLE
5
A
100
AcDbSymbolTable
70
1
0
ENDTAB
0
TABLE
2
BLOCK_RECORD
5
1
100
AcDbSymbolTable
70
1
0
BLOCK_RECORD
5
1F
100
AcDbSymbolTableRecord
100
AcDbBlockTableRecord
2
*MODEL_SPACE
0
BLOCK_RECORD
5
1B
100
AcDbSymbolTableRecord
100
AcDbBlockTableRecord
2
*PAPER_SPACE
0
ENDTAB
0
ENDSEC
0
SECTION
2
BLOCKS
0
BLOCK
5
20
100
AcDbEntity
100
AcDbBlockBegin
2
*MODEL_SPACE
0
ENDBLK
5
21
100
AcDbEntity
100
AcDbBlockEnd
0
BLOCK
5
1C
100
AcDbEntity
100
AcDbBlockBegin
2
*PAPER_SPACE
0
ENDBLK
5
1D
100
AcDbEntity
100
AcDbBlockEnd
0
ENDSEC
0
SECTION
2
ENTITIES
0
LWPOLYLINE
5
100
100
AcDbEntity
8
0
100
AcDbPolyline
90
26
70
1
43
0.0
10
718.54699134161842
20
-45.183275367596806
42
0.41421356229527445
10
728.0469913416182
20
-54.683275365072973
10
768.16314504429215
20
-54.683275365074479
10
781.46516989163979
20
-59.669933898192454
10
815.45173492066112
20
-47.299835862676019
10
815.45173492066112
20
-44.087787013700265
10
820.3529445616482
20
-44.087787013685222
10
823.1215445625503
20
-46.856387014070918
10
823.40350488549586
20
-46.856387647739098
10
825.26780868076185
20
-44.992083852473186
10
825.26780862616886
20
-42.304688160641462
10
823.02819111356814
20
-42.304688160570251
10
823.02819111395229
20
-30.199087087847182
10
825.26782745373691
20
-30.199087087918389
10
825.26782739914461
20
-27.511723659167856
10
823.40349015534559
20
-25.64738641536881
10
823.12154452658035
20
-25.647387049037093
10
820.35297770282591
20
-28.415953872276209
10
815.45173492066147
20
-28.415953872276209
10
815.45173492066147
20
-21.980269995363791
10
807.34036296753118
20
-12.971678130197798
10
786.98249699967596
20
-12.971677212433907
10
768.10826329798044
20
-17.997855163780144
10
768.10826329798044
20
-17.981035963279403
10
728.04699133691599
20
-17.981035963277904
42
0.41421356245091556
10
718.54699133691565
20
-27.48103596580173
0
LWPOLYLINE
5
101
100
AcDbEntity
8
0
100
AcDbPolyline
90
4
70
1
43
0.0
10
800.05513414453662
20
-37.969323898303635
10
796.7148087358546
20
-37.969323898303486
42
-15.714071938073552
10
796.71474484176372
20
-34.730323898508829
10
799.96508922605108
20
-34.730323898303716
42
-4.5694245124939892
0
CIRCLE
5
102
100
AcDbEntity
8
0
100
AcDbCircle
10
751.34618501180285
20
-36.314627091603398
30
1.4210854715202004e-13
40
3.4250000000000003
210
2.5824647164829407e-15
220
0
230
1
0
ELLIPSE
5
103
100
AcDbEntity
8
0
100
AcDbEllipse
10
817.05799239852377
20
-36.251887246509291
30
0
11
-6.9583585096867958e-08
21
-3.4250000000000003
31
0.0
40
0.99999999999999989
41
0
42
6.2831853071795862
0
ENDSEC
0
SECTION
2
OBJECTS
0
DICTIONARY
5
C
100
AcDbDictionary
3
ACAD_GROUP
350
D
3
ACAD_MLINESTYLE
350
17
0
DICTIONARY
5
D
100
AcDbDictionary
0
DICTIONARY
5
1A
330
C
100
AcDbDictionary
0
DICTIONARY
5
17
100
AcDbDictionary
0
ENDSEC
0
EOF
